# xmcd CD database file
#
# Track frame offsets:
#	183
#	44658
#	80033
#	120258
#	154383
#	191583
#
# Disc length: 3085 seconds
#
# Revision: 0
# Processed by: cddbd v1.5.2PL0 Copyright (c) Steve Scherf et al.
# Submitted via: CDex 1.51
#
DISCID=4c0c0b06
DTITLE=Furio Romano Quintet and Tom Harrell - Inside out
DYEAR=1991
DGENRE=Jazz
TTITLE0=Epistrophy (Monk)
TTITLE1=Assenza
TTITLE2=Ah già
TTITLE3=Jelly Roll (Mingus)
TTITLE4=Iter
TTITLE5=Inside Out
EXTD=YEAR: 1991
EXTT0=
EXTT1=
EXTT2=
EXTT3=
EXTT4=
EXTT5=
PLAYORDER=
